<?xml version="1.0" encoding="UTF-8"?>
<svg xmlns="http://www.w3.org/2000/svg" xmlns:xlink="http://www.w3.org/1999/xlink" width="60pt" height="60pt" viewBox="0 0 60 60" version="1.1">
<g id="surface1">
<path style=" stroke:none;fill-rule:nonzero;fill:rgb(90.196078%,29.803922%,23.529412%);fill-opacity:1;" d="M 29.96875 12.351562 C 32.261719 6.507812 37.167969 2.042969 43.265625 2.042969 C 48.394531 2.042969 52.613281 4.753906 56.046875 8.433594 C 60.609375 13.320312 62.644531 24.546875 54.183594 33.003906 C 49.894531 37.292969 30.019531 57.957031 30.019531 57.957031 C 30.019531 57.957031 10.144531 37.292969 5.851562 33.003906 C -2.605469 24.546875 -0.675781 13.320312 3.988281 8.433594 C 7.460938 4.792969 11.640625 2.042969 16.773438 2.042969 C 22.867188 2.042969 27.675781 6.507812 29.96875 12.351562 "/>
<path style=" stroke:none;fill-rule:nonzero;fill:rgb(74.117647%,76.470588%,78.039216%);fill-opacity:1;" d="M 22.683594 27.957031 L 37.195312 27.957031 L 37.195312 23.808594 L 22.683594 23.808594 Z M 22.683594 27.957031 "/>
<path style=" stroke:none;fill-rule:nonzero;fill:rgb(32.941176%,41.568627%,47.45098%);fill-opacity:1;" d="M 14.910156 31.007812 C 13.476562 31.007812 12.320312 29.847656 12.320312 28.417969 L 12.320312 23.234375 C 12.320312 21.800781 13.476562 20.640625 14.910156 20.640625 C 16.339844 20.640625 17.5 21.800781 17.5 23.234375 L 17.5 28.417969 C 17.5 29.847656 16.339844 31.007812 14.910156 31.007812 "/>
<path style=" stroke:none;fill-rule:nonzero;fill:rgb(21.960784%,27.058824%,30.980392%);fill-opacity:1;" d="M 20.09375 33.082031 C 18.660156 33.082031 17.5 31.921875 17.5 30.488281 L 17.5 21.160156 C 17.5 19.730469 18.660156 18.570312 20.09375 18.570312 C 21.523438 18.570312 22.683594 19.730469 22.683594 21.160156 L 22.683594 30.488281 C 22.683594 31.921875 21.523438 33.082031 20.09375 33.082031 "/>
<path style=" stroke:none;fill-rule:nonzero;fill:rgb(32.941176%,41.568627%,47.45098%);fill-opacity:1;" d="M 44.96875 20.640625 C 46.402344 20.640625 47.5625 21.800781 47.5625 23.234375 L 47.5625 28.417969 C 47.5625 29.847656 46.402344 31.007812 44.96875 31.007812 C 43.539062 31.007812 42.378906 29.847656 42.378906 28.417969 L 42.378906 23.234375 C 42.378906 21.800781 43.539062 20.640625 44.96875 20.640625 "/>
<path style=" stroke:none;fill-rule:nonzero;fill:rgb(21.960784%,27.058824%,30.980392%);fill-opacity:1;" d="M 39.789062 18.570312 C 41.21875 18.570312 42.378906 19.730469 42.378906 21.160156 L 42.378906 30.488281 C 42.378906 31.921875 41.21875 33.082031 39.789062 33.082031 C 38.355469 33.082031 37.195312 31.921875 37.195312 30.488281 L 37.195312 21.160156 C 37.195312 19.730469 38.355469 18.570312 39.789062 18.570312 "/>
</g>
</svg>
