<?xml version="1.0" encoding="UTF-8"?>
<svg xmlns="http://www.w3.org/2000/svg" xmlns:xlink="http://www.w3.org/1999/xlink" width="60pt" height="60pt" viewBox="0 0 60 60" version="1.1">
<g id="surface1">
<path style=" stroke:none;fill-rule:nonzero;fill:rgb(14.901961%,22.745098%,47.843137%);fill-opacity:1;" d="M 60 30 C 60 46.570312 46.570312 60 30 60 C 13.429688 60 0 46.570312 0 30 C 0 13.429688 13.429688 0 30 0 C 46.570312 0 60 13.429688 60 30 Z M 60 30 "/>
<path style=" stroke:none;fill-rule:nonzero;fill:rgb(7.058824%,6.666667%,28.627451%);fill-opacity:1;" d="M 59.765625 33.75 L 50.332031 23.964844 L 50 23.984375 L 46.980469 20.960938 L 47.445312 30.234375 L 27.722656 30.234375 L 18.449219 20.960938 L 15.46875 28.128906 L 15.40625 28.066406 L 9.640625 36.007812 L 33.761719 59.765625 C 47.328125 58.070312 58.074219 47.316406 59.765625 33.75 Z M 59.765625 33.75 "/>
<path style=" stroke:none;fill-rule:nonzero;fill:rgb(100%,100%,100%);fill-opacity:1;" d="M 17.320312 26.832031 L 42.679688 26.832031 L 42.679688 33.171875 L 17.320312 33.171875 Z M 17.320312 26.832031 "/>
<path style=" stroke:none;fill-rule:nonzero;fill:rgb(81.568627%,81.960784%,82.745098%);fill-opacity:1;" d="M 17.320312 30 L 42.679688 30 L 42.679688 33.171875 L 17.320312 33.171875 Z M 17.320312 30 "/>
<path style=" stroke:none;fill-rule:nonzero;fill:rgb(100%,78.823529%,10.588235%);fill-opacity:1;" d="M 17.320312 39.511719 L 14.148438 39.511719 C 13.273438 39.511719 12.5625 38.800781 12.5625 37.925781 L 12.5625 22.074219 C 12.5625 21.199219 13.273438 20.488281 14.148438 20.488281 L 17.320312 20.488281 C 18.195312 20.488281 18.90625 21.199219 18.90625 22.074219 L 18.90625 37.925781 C 18.90625 38.800781 18.195312 39.511719 17.320312 39.511719 Z M 17.320312 39.511719 "/>
<path style=" stroke:none;fill-rule:nonzero;fill:rgb(91.764706%,63.529412%,18.431373%);fill-opacity:1;" d="M 12.5625 30 L 12.5625 37.925781 C 12.5625 38.800781 13.273438 39.511719 14.148438 39.511719 L 17.320312 39.511719 C 18.195312 39.511719 18.90625 38.800781 18.90625 37.925781 L 18.90625 30 Z M 12.5625 30 "/>
<path style=" stroke:none;fill-rule:nonzero;fill:rgb(100%,49.803922%,30.980392%);fill-opacity:1;" d="M 11.578125 36.339844 L 10.378906 36.339844 C 9.835938 36.339844 9.394531 35.898438 9.394531 35.355469 L 9.394531 24.644531 C 9.394531 24.101562 9.835938 23.660156 10.378906 23.660156 L 11.578125 23.660156 C 12.125 23.660156 12.5625 24.101562 12.5625 24.644531 L 12.5625 35.355469 C 12.5625 35.898438 12.125 36.339844 11.578125 36.339844 Z M 11.578125 36.339844 "/>
<path style=" stroke:none;fill-rule:nonzero;fill:rgb(82.745098%,34.901961%,20%);fill-opacity:1;" d="M 9.394531 30 L 9.394531 35.355469 C 9.394531 35.898438 9.835938 36.339844 10.378906 36.339844 L 11.582031 36.339844 C 12.125 36.339844 12.5625 35.898438 12.5625 35.355469 L 12.5625 30 Z M 9.394531 30 "/>
<path style=" stroke:none;fill-rule:nonzero;fill:rgb(100%,78.823529%,10.588235%);fill-opacity:1;" d="M 42.679688 20.488281 L 45.851562 20.488281 C 46.726562 20.488281 47.4375 21.199219 47.4375 22.074219 L 47.4375 37.925781 C 47.4375 38.800781 46.726562 39.511719 45.851562 39.511719 L 42.679688 39.511719 C 41.804688 39.511719 41.09375 38.800781 41.09375 37.925781 L 41.09375 22.074219 C 41.09375 21.199219 41.804688 20.488281 42.679688 20.488281 Z M 42.679688 20.488281 "/>
<path style=" stroke:none;fill-rule:nonzero;fill:rgb(91.764706%,63.529412%,18.431373%);fill-opacity:1;" d="M 41.09375 30 L 41.09375 37.925781 C 41.09375 38.800781 41.804688 39.511719 42.679688 39.511719 L 45.851562 39.511719 C 46.726562 39.511719 47.4375 38.800781 47.4375 37.925781 L 47.4375 30 Z M 41.09375 30 "/>
<path style=" stroke:none;fill-rule:nonzero;fill:rgb(100%,49.803922%,30.980392%);fill-opacity:1;" d="M 48.421875 23.660156 L 49.621094 23.660156 C 50.164062 23.660156 50.605469 24.101562 50.605469 24.644531 L 50.605469 35.355469 C 50.605469 35.898438 50.164062 36.339844 49.621094 36.339844 L 48.421875 36.339844 C 47.875 36.339844 47.4375 35.898438 47.4375 35.355469 L 47.4375 24.644531 C 47.4375 24.101562 47.875 23.660156 48.421875 23.660156 Z M 48.421875 23.660156 "/>
<path style=" stroke:none;fill-rule:nonzero;fill:rgb(82.745098%,34.901961%,20%);fill-opacity:1;" d="M 47.4375 30 L 47.4375 35.355469 C 47.4375 35.898438 47.875 36.339844 48.421875 36.339844 L 49.621094 36.339844 C 50.164062 36.339844 50.605469 35.898438 50.605469 35.355469 L 50.605469 30 Z M 47.4375 30 "/>
</g>
</svg>
