<?xml version="1.0" encoding="UTF-8"?>
<svg xmlns="http://www.w3.org/2000/svg" xmlns:xlink="http://www.w3.org/1999/xlink" width="60pt" height="60pt" viewBox="0 0 60 60" version="1.1">
<defs>
<filter id="alpha" filterUnits="objectBoundingBox" x="0%" y="0%" width="100%" height="100%">
  <feColorMatrix type="matrix" in="SourceGraphic" values="0 0 0 0 1 0 0 0 0 1 0 0 0 0 1 0 0 0 1 0"/>
</filter>
<mask id="mask0">
  <g filter="url(#alpha)">
<rect x="0" y="0" width="60" height="60" style="fill:rgb(0%,0%,0%);fill-opacity:0.2;stroke:none;"/>
  </g>
</mask>
<clipPath id="clip1">
  <rect x="0" y="0" width="60" height="60"/>
</clipPath>
<g id="surface5" clip-path="url(#clip1)">
<path style=" stroke:none;fill-rule:nonzero;fill:rgb(100%,100%,100%);fill-opacity:1;" d="M 46.25 0 L 43.746094 0 C 44.4375 0 44.996094 0.558594 44.996094 1.25 L 44.996094 17.5 C 44.996094 22.175781 43.179688 26.570312 39.871094 29.875 C 36.863281 32.882812 32.953125 34.660156 28.75 34.953125 C 29.160156 34.984375 29.578125 35 29.996094 35 C 34.671875 35 39.066406 33.179688 42.371094 29.875 C 45.675781 26.570312 47.496094 22.175781 47.496094 17.5 L 47.496094 1.25 C 47.496094 0.558594 46.9375 0 46.25 0 Z M 46.25 0 "/>
</g>
</defs>
<g id="surface1">
<path style=" stroke:none;fill-rule:nonzero;fill:rgb(96.470588%,73.333333%,25.882353%);fill-opacity:1;" d="M 32.496094 47.5 L 27.5 47.5 C 26.808594 47.5 26.246094 46.941406 26.246094 46.25 L 26.246094 28.023438 C 26.246094 27.335938 26.808594 26.777344 27.5 26.777344 L 32.496094 26.777344 C 33.1875 26.777344 33.746094 27.335938 33.746094 28.023438 L 33.746094 46.25 C 33.746094 46.941406 33.1875 47.5 32.496094 47.5 Z M 32.496094 47.5 "/>
<path style=" stroke:none;fill-rule:nonzero;fill:rgb(100%,80.784314%,32.941176%);fill-opacity:1;" d="M 37.496094 41.25 L 22.496094 41.25 C 20.429688 41.25 18.746094 42.929688 18.746094 45 L 18.746094 47.5 C 18.746094 49.566406 20.429688 51.25 22.496094 51.25 L 37.5 51.25 C 39.566406 51.25 41.246094 49.566406 41.246094 47.5 L 41.246094 45 C 41.246094 42.929688 39.566406 41.25 37.496094 41.25 Z M 37.496094 41.25 "/>
<path style=" stroke:none;fill-rule:nonzero;fill:rgb(26.27451%,29.019608%,32.941176%);fill-opacity:1;" d="M 43.746094 45 L 16.25 45 C 15.558594 45 14.996094 45.558594 14.996094 46.25 L 14.996094 58.75 C 14.996094 59.441406 15.558594 60 16.25 60 L 43.746094 60 C 44.4375 60 44.996094 59.441406 44.996094 58.75 L 44.996094 46.25 C 44.996094 45.558594 44.4375 45 43.746094 45 Z M 43.746094 45 "/>
<path style=" stroke:none;fill-rule:nonzero;fill:rgb(96.470588%,73.333333%,25.882353%);fill-opacity:1;" d="M 44.414062 26.25 C 43.921875 26.25 43.457031 25.957031 43.257812 25.472656 C 43 24.832031 43.304688 24.101562 43.945312 23.84375 C 48.777344 21.875 51.894531 18.175781 53.21875 12.847656 C 53.898438 10.113281 53.910156 7.613281 53.84375 6.25 L 46.246094 6.25 C 45.554688 6.25 44.996094 5.691406 44.996094 5 C 44.996094 4.308594 45.554688 3.75 46.246094 3.75 L 54.996094 3.75 C 55.621094 3.75 56.148438 4.210938 56.234375 4.828125 C 56.257812 4.988281 56.773438 8.828125 55.667969 13.363281 C 54.175781 19.46875 50.449219 23.890625 44.886719 26.15625 C 44.734375 26.21875 44.574219 26.25 44.414062 26.25 Z M 44.414062 26.25 "/>
<path style=" stroke:none;fill-rule:nonzero;fill:rgb(96.470588%,73.333333%,25.882353%);fill-opacity:1;" d="M 15.582031 26.25 C 15.425781 26.25 15.265625 26.21875 15.113281 26.15625 C 9.550781 23.890625 5.824219 19.46875 4.332031 13.363281 C 3.226562 8.828125 3.742188 4.988281 3.765625 4.828125 C 3.851562 4.210938 4.378906 3.75 5.003906 3.75 L 13.753906 3.75 C 14.441406 3.75 15.003906 4.308594 15.003906 5 C 15.003906 5.691406 14.441406 6.25 13.753906 6.25 L 6.152344 6.25 C 6.089844 7.613281 6.101562 10.109375 6.78125 12.847656 C 8.105469 18.175781 11.222656 21.875 16.054688 23.84375 C 16.695312 24.101562 17.003906 24.832031 16.742188 25.472656 C 16.542969 25.957031 16.078125 26.25 15.582031 26.25 Z M 15.582031 26.25 "/>
<path style=" stroke:none;fill-rule:nonzero;fill:rgb(100%,80.784314%,32.941176%);fill-opacity:1;" d="M 38.75 53.75 L 21.25 53.75 C 20.558594 53.75 20 53.191406 20 52.5 C 20 51.808594 20.558594 51.25 21.25 51.25 L 38.75 51.25 C 39.4375 51.25 39.996094 51.808594 39.996094 52.5 C 39.996094 53.191406 39.4375 53.75 38.75 53.75 Z M 38.75 53.75 "/>
<path style=" stroke:none;fill-rule:nonzero;fill:rgb(100%,80.784314%,32.941176%);fill-opacity:1;" d="M 46.25 0 L 13.75 0 C 13.058594 0 12.5 0.558594 12.5 1.25 L 12.5 17.5 C 12.5 22.175781 14.320312 26.570312 17.625 29.875 C 20.929688 33.179688 25.324219 35 29.996094 35 C 34.671875 35 39.066406 33.179688 42.371094 29.875 C 45.675781 26.570312 47.496094 22.175781 47.496094 17.5 L 47.496094 1.25 C 47.496094 0.558594 46.9375 0 46.25 0 Z M 46.25 0 "/>
<use xlink:href="#surface5" mask="url(#mask0)"/>
<path style=" stroke:none;fill-rule:nonzero;fill:rgb(92.941176%,33.333333%,39.215686%);fill-opacity:1;" d="M 39.152344 13.996094 C 39.003906 13.546875 38.613281 13.214844 38.140625 13.148438 L 33.289062 12.441406 L 31.121094 8.042969 C 30.910156 7.617188 30.472656 7.347656 29.996094 7.347656 C 29.523438 7.347656 29.089844 7.617188 28.878906 8.042969 L 26.707031 12.441406 L 21.855469 13.148438 C 21.382812 13.214844 20.992188 13.546875 20.84375 13.996094 C 20.699219 14.449219 20.820312 14.945312 21.160156 15.277344 L 24.671875 18.703125 L 23.84375 23.535156 C 23.761719 24.003906 23.957031 24.476562 24.339844 24.757812 C 24.726562 25.039062 25.238281 25.074219 25.65625 24.855469 L 30 22.570312 L 34.339844 24.855469 C 34.519531 24.949219 34.71875 24.996094 34.921875 24.996094 C 35.179688 24.996094 35.4375 24.917969 35.65625 24.757812 C 36.039062 24.476562 36.234375 24.003906 36.152344 23.535156 L 35.324219 18.703125 L 38.835938 15.277344 C 39.175781 14.945312 39.296875 14.449219 39.152344 13.996094 Z M 39.152344 13.996094 "/>
</g>
</svg>
